<svg width="1600" height="1000" viewBox="0 0 1600 1000" fill="none" xmlns="http://www.w3.org/2000/svg">
  <rect width="1600" height="1000" fill="#1F1A13"/>
  <circle cx="1320" cy="150" r="480" fill="#C9802A" fill-opacity="0.22"/>
  <circle cx="280" cy="870" r="420" fill="#F0A93B" fill-opacity="0.08"/>
  <rect x="155" y="145" width="1290" height="710" rx="28" fill="#1E1810" stroke="#F0DDBE" stroke-opacity="0.16" stroke-width="2"/>
  <rect x="155" y="145" width="1290" height="86" rx="28" fill="#17130E"/>
  <path d="M155 203C155 170.967 180.967 145 213 145H1387C1419.03 145 1445 170.967 1445 203V231H155V203Z" fill="#17130E"/>
  <circle cx="213" cy="188" r="11" stroke="#F0DDBE" stroke-opacity="0.2" stroke-width="2"/>
  <circle cx="251" cy="188" r="11" stroke="#F0DDBE" stroke-opacity="0.2" stroke-width="2"/>
  <circle cx="289" cy="188" r="11" fill="#F0A93B"/>
  <rect x="225" y="317" width="570" height="46" rx="10" fill="#F3ECE0" fill-opacity="0.86"/>
  <rect x="225" y="392" width="430" height="20" rx="10" fill="#A99C88" fill-opacity="0.5"/>
  <rect x="225" y="432" width="500" height="20" rx="10" fill="#A99C88" fill-opacity="0.28"/>
  <rect x="225" y="508" width="175" height="52" rx="10" fill="#F0A93B"/>
  <rect x="855" y="315" width="375" height="360" rx="22" fill="#17130E" stroke="#F0DDBE" stroke-opacity="0.1" stroke-width="2"/>
  <rect x="905" y="377" width="275" height="16" rx="8" fill="#F0A93B" fill-opacity="0.9"/>
  <rect x="905" y="427" width="210" height="14" rx="7" fill="#A99C88" fill-opacity="0.45"/>
  <rect x="905" y="469" width="250" height="14" rx="7" fill="#A99C88" fill-opacity="0.25"/>
  <rect x="905" y="546" width="115" height="78" rx="12" fill="#F0A93B" fill-opacity="0.12" stroke="#F0A93B" stroke-opacity="0.34" stroke-width="2"/>
  <rect x="1040" y="546" width="115" height="78" rx="12" fill="#F0A93B" fill-opacity="0.06" stroke="#F0DDBE" stroke-opacity="0.1" stroke-width="2"/>
</svg>
